PathFileType	4	(X/Y/Z)	C:/Users/opensim2020/Desktop/walking_exp_matlab/subject06_walking14_straight_02.trc																																																																																																																																					
DataRate	CameraRate	NumFrames	NumMarkers	Units	OrigDataRate	OrigDataStartFrame	OrigNumFrames																																																																																																																																	
100	100	4	45	mm	100	1652	192																																																																																																																																	
Frame#	Time	LFHD			RFHD			LBHD			RBHD			C7			T10			CLAV			STRN			RBAK			LSHO			LUPA			LELB			LFRM			LWRA			LWRB			LFIN			RSHO			RUPA			RELB			RFRM			RWRA			RWRB			RFIN			LASI			RASI			LPSI			RPSI			LTHI			LKNE			LTIB			LANK			LHEE			LTOE			RTHI			RKNE			RTIB			RANK			RHEE			RTOE			*39			*40			*41			*42			*43			*44		
		X1	Y1	Z1	X2	Y2	Z2	X3	Y3	Z3	X4	Y4	Z4	X5	Y5	Z5	X6	Y6	Z6	X7	Y7	Z7	X8	Y8	Z8	X9	Y9	Z9	X10	Y10	Z10	X11	Y11	Z11	X12	Y12	Z12	X13	Y13	Z13	X14	Y14	Z14	X15	Y15	Z15	X16	Y16	Z16	X17	Y17	Z17	X18	Y18	Z18	X19	Y19	Z19	X20	Y20	Z20	X21	Y21	Z21	X22	Y22	Z22	X23	Y23	Z23	X24	Y24	Z24	X25	Y25	Z25	X26	Y26	Z26	X27	Y27	Z27	X28	Y28	Z28	X29	Y29	Z29	X30	Y30	Z30	X31	Y31	Z31	X32	Y32	Z32	X33	Y33	Z33	X34	Y34	Z34	X35	Y35	Z35	X36	Y36	Z36	X37	Y37	Z37	X38	Y38	Z38	X39	Y39	Z39	X40	Y40	Z40	X41	Y41	Z41	X42	Y42	Z42	X43	Y43	Z43	X44	Y44	Z44	X45	Y45	Z45
																																																																																																																																								
73	0.72	-227.29976	1665.18274	928.67426	-223.96426	1655.81519	1060.82739	-357.71423	1604.2373	931.96906	-352.45923	1600.00378	1060.80603	-348.63608	1448.21851	985.3573	-381.59485	1120.44873	993.81171	-236.13037	1374.48621	990.69452	-195.16103	1198.9668	987.24866	-422.02029	1280.55701	1061.51587	-285.92883	1404.49316	826.94177	-252.23369	1205.82263	751.10699	-228.42245	1095.87695	735.37061	-147.29492	969.27747	713.86133	-45.31772	892.16699	757.81122	-96.55563	861.30743	719.63367	-22.7555	809.71851	717.14868	-286.85464	1404.28455	1150.85986	-340.41229	1206.73596	1232.95715	-341.40628	1084.76343	1244.37085	-344.31601	964.76221	1264.03503	-303.25699	816.62866	1242.79614	-362.51855	827.78101	1276.25366	-340.7937	745.91888	1282.27124	-199.88863	959.22998	894.8017	-207.96031	968.51251	1115.09644	-358.6084	988.06982	918.94073	-358.74585	987.82397	1087.0946	-285.79315	647.61987	845.32916	-308.62854	484.49792	868.39502	-369.98398	234.21819	885.42438	-392.4678	64.84601	935.52783	-432.57361	52.68907	980.91235	-247.66727	35.09542	938.08008	-179.87852	646.30792	1182.31604	-127.75067	531.4151	1159.86768	-185.33694	274.07495	1148.48755	-211.34988	90.35261	1101.96265	-243.27344	67.60952	1049.59302	-65.9728	42.69613	1125.68103	-327.80896	1699.54065	989.9682	NaN	NaN	NaN	NaN	NaN	NaN	NaN	NaN	NaN	NaN	NaN	NaN	NaN	NaN	NaN
74	0.73	-217.09689	1664.18396	928.86609	-213.733	1654.81152	1061.15796	-347.5275	1603.45374	932.27032	-342.37277	1599.27966	1061.22839	-338.74966	1447.3905	985.48682	-371.9545	1119.63403	993.84955	-226.46471	1373.5365	990.90363	-185.5789	1198.02661	987.12238	-412.32339	1279.72913	1061.31396	-276.026	1403.8916	827.20258	-240.83022	1205.67261	751.31104	-215.46718	1096.01477	735.47314	-130.68777	971.76019	714.54749	-26.29891	898.55334	758.95428	-76.44234	865.54877	721.12946	-0.83606	816.7948	718.80615	-277.27097	1403.32886	1150.99976	-333.18555	1206.38086	1232.60046	-335.41968	1084.4718	1244.11877	-339.94528	964.49719	1263.69641	-300.91489	815.78394	1242.53699	-359.99298	827.73352	1275.82349	-339.38663	745.50793	1281.78735	-190.61308	958.07532	894.2785	-197.95241	967.73553	1114.68091	-349.36951	987.07324	919.15613	-348.82068	986.91333	1087.3689	-278.06952	646.72925	845.78894	-302.41049	483.73813	868.85059	-367.10721	234.16273	885.66016	-391.98312	65.07184	935.75769	-432.32364	53.12696	981.11517	-247.39944	34.97974	938.16711	-171.10771	644.84027	1181.6355	-118.93414	529.91174	1158.91638	-164.87213	270.02142	1147.96912	-179.31993	84.78827	1102.01038	-209.97371	61.00723	1049.86523	-31.74299	43.14149	1126.28992	-317.49765	1698.75781	990.38007	NaN	NaN	NaN	NaN	NaN	NaN	NaN	NaN	NaN	NaN	NaN	NaN	NaN	NaN	NaN
75	0.74	-206.88013	1663.15601	929.31787	-203.50516	1653.64307	1061.4895	-337.48694	1602.70471	932.5968	-332.24756	1598.34143	1061.55444	-329.03314	1446.46497	985.71545	-362.362	1118.72754	993.99194	-216.60826	1372.52808	991.14929	-175.79442	1196.99463	987.07635	-402.67407	1278.86121	1061.11292	-266.08185	1403.20483	827.49719	-229.62624	1205.42236	751.60376	-202.78995	1096.125	735.83789	-114.78629	974.28375	715.22455	-7.8737	904.92657	760.33063	-56.93257	869.9928	722.79968	20.42568	823.91827	720.56537	-267.76566	1402.35449	1151.22925	-325.61118	1206.01575	1232.57886	-329.24252	1084.07739	1243.87671	-335.30737	964.17151	1263.46423	-297.96619	815.01123	1242.46729	-357.1669	827.67834	1275.5968	-337.83868	745.03387	1281.29834	-181.23425	956.94043	893.96283	-187.81903	966.69824	1114.40039	-339.92499	986.03741	919.45868	-338.76154	985.89575	1087.66907	-270.54251	645.74274	846.16125	-296.21365	482.90442	869.2345	-364.25403	234.11266	885.95313	-391.56931	65.35054	935.94263	-432.12939	53.61485	981.26147	-247.24782	34.88298	938.20917	-162.89198	642.87634	1180.8634	-110.9277	527.93469	1157.84216	-144.47879	266.20972	1147.76221	-147.47969	80.25318	1102.47021	-176.40263	55.14925	1050.17725	1.98217	44.29425	1126.69031	-307.15112	1697.83203	990.77203	NaN	NaN	NaN	NaN	NaN	NaN	NaN	NaN	NaN	NaN	NaN	NaN	NaN	NaN	NaN
76	0.75	-196.61188	1661.90991	929.71393	-193.29126	1652.36414	1061.87317	-327.31622	1601.77991	932.98077	-322.49435	1597.40149	1062.28552	-319.10828	1445.30139	985.96405	-352.5658	1117.69775	994.20441	-206.86066	1371.27002	991.45868	-165.9558	1195.80066	987.07941	-392.84406	1277.81189	1060.99146	-256.20276	1402.43665	827.84753	-218.26982	1205.15076	751.96008	-190.39957	1096.0498	736.31006	-99.15218	976.7077	716.22772	9.95977	911.18146	761.73523	-37.81206	874.29559	724.16772	41.06337	831.10474	722.50104	-258.16345	1401.20508	1151.42627	-318.03964	1205.53857	1232.4906	-323.0032	1083.68958	1243.8667	-330.27719	963.78314	1263.3689	-294.55267	814.16815	1242.57983	-353.7193	827.51642	1275.4314	-335.57959	744.55518	1281.02832	-171.80542	955.6344	893.73755	-177.5269	965.48737	1114.24927	-330.35831	984.88269	919.6969	-328.54276	984.7832	1088.00146	-262.92239	644.64966	846.41345	-289.90567	482.05688	869.56488	-361.28281	234.00079	886.03918	-391.04514	65.55128	936.03522	-431.91568	54.07984	981.34662	-246.86693	34.59924	938.32684	-155.07477	640.50293	1180.07617	-103.47867	525.45325	1156.96094	-124.36065	262.77032	1147.51672	-115.96998	76.81571	1103.23755	-144.16331	51.07128	1050.75708	34.98007	46.24184	1126.8573	-296.8613	1696.7688	991.18268	NaN	NaN	NaN	NaN	NaN	NaN	NaN	NaN	NaN	NaN	NaN	NaN	NaN	NaN	NaN
